<?xml version="1.0" standalone="no"?>
<!DOCTYPE svg PUBLIC "-//W3C//DTD SVG 20010904//EN"
 "http://www.w3.org/TR/2001/REC-SVG-20010904/DTD/svg10.dtd">
<svg version="1.0" xmlns="http://www.w3.org/2000/svg"
 width="300.000000pt" height="300.000000pt" viewBox="0 0 300.000000 300.000000"
 preserveAspectRatio="xMidYMid meet">
<metadata>
Created by potrace 1.10, written by Peter Selinger 2001-2011
</metadata>
<g transform="translate(0.000000,300.000000) scale(0.100000,-0.100000)"
fill="#000000" stroke="none">
<path d="M1155 2560 c-193 -32 -341 -167 -390 -357 -8 -31 -15 -71 -15 -88 0
-27 -7 -33 -66 -64 -129 -67 -240 -209 -279 -357 -19 -73 -19 -212 0 -284 40
-152 155 -294 291 -363 136 -68 298 -83 429 -39 l54 19 303 -304 302 -303 155
2 c142 3 156 5 159 21 2 10 -11 96 -29 190 l-32 171 -56 58 -55 58 -76 0 -76
0 4 63 c5 82 -4 90 -98 85 l-70 -3 0 86 c0 103 -11 120 -59 95 -32 -17 -96
-22 -105 -8 -2 4 9 35 25 67 32 66 59 176 59 245 0 25 -7 77 -15 115 -45 214
-209 386 -420 440 -65 16 -189 19 -247 6 -43 -10 -45 -7 -27 68 27 119 114
228 227 283 57 28 78 33 164 36 84 4 110 1 181 -22 95 -29 194 -89 253 -153
28 -30 46 -42 57 -37 33 12 18 48 -47 109 -126 121 -340 192 -501 165z m-355
-483 c0 -8 -9 -22 -20 -32 -22 -20 -27 -7 -10 26 12 22 30 25 30 6z m284 -33
c194 -50 347 -222 377 -426 14 -98 -5 -202 -57 -305 -29 -59 -34 -75 -25 -92
21 -38 94 -65 141 -51 l30 9 0 -84 c0 -97 1 -98 103 -94 l62 3 -3 -52 c-6 -90
-4 -92 97 -92 l87 0 42 -43 c33 -34 44 -54 53 -101 7 -32 18 -60 26 -63 14 -6
18 -53 4 -53 -11 0 -23 29 -17 39 9 14 -130 143 -150 139 -43 -8 -27 -40 74
-142 64 -65 101 -111 104 -128 5 -27 4 -28 -41 -28 l-46 0 -325 325 c-179 179
-332 325 -341 325 -9 0 -20 -8 -23 -17 -5 -13 68 -92 301 -325 282 -282 305
-308 278 -308 -26 -1 -68 38 -335 310 l-305 311 -49 -20 c-74 -32 -173 -44
-256 -32 -355 55 -542 418 -382 741 31 63 138 174 200 208 l42 23 0 -40 c0
-30 -5 -43 -21 -51 -35 -19 -59 -70 -59 -128 0 -47 4 -57 38 -94 35 -37 45
-42 93 -45 72 -6 116 18 147 80 19 36 23 54 17 87 -10 57 -56 108 -111 122
-42 12 -44 14 -44 50 0 33 3 38 28 44 15 3 32 7 37 9 29 10 155 3 209 -11z
m-277 -120 c8 -21 -13 -42 -28 -27 -13 13 -5 43 11 43 6 0 13 -7 17 -16z m62
-51 c62 -58 29 -153 -52 -153 -68 0 -106 67 -75 135 12 26 28 34 28 13 0 -7 5
-30 11 -50 8 -31 15 -38 35 -38 33 0 38 17 19 69 -8 24 -15 45 -15 47 0 12 23
0 49 -23z"/>
<path d="M1057 1943 c-21 -20 -4 -43 49 -67 134 -62 203 -165 221 -331 8 -66
9 -70 33 -70 22 0 25 5 28 43 7 102 -40 232 -115 312 -70 76 -190 139 -216
113z"/>
<path d="M1776 2495 c-44 -30 -86 -61 -95 -70 -15 -16 -13 -16 20 -2 20 8 63
33 96 56 33 22 70 41 81 41 14 0 34 -20 63 -62 23 -35 57 -83 74 -108 63 -90
311 -447 355 -511 25 -37 76 -110 113 -164 38 -53 69 -109 70 -123 2 -23 -10
-35 -79 -82 -44 -30 -139 -96 -210 -146 -151 -106 -168 -116 -187 -108 -12 4
-146 191 -279 389 -15 22 -46 67 -70 101 -24 34 -74 106 -111 160 -37 54 -99
144 -137 199 -39 55 -70 107 -70 116 0 23 27 51 90 91 58 37 87 65 77 75 -7 6
-10 4 -122 -75 -87 -61 -92 -81 -41 -155 45 -66 161 -234 301 -434 60 -87 160
-232 223 -323 62 -91 122 -168 133 -172 28 -11 0 -28 432 272 47 33 80 64 84
78 4 17 -6 39 -38 85 -24 34 -61 87 -82 117 -20 30 -72 105 -115 166 -42 61
-110 160 -151 220 -41 60 -93 135 -115 166 -23 31 -68 96 -101 144 -33 48 -66
93 -73 101 -23 23 -55 13 -136 -42z"/>
<path d="M1804 2258 c-64 -34 -154 -108 -154 -126 0 -35 15 -45 60 -37 41 7
42 6 34 -16 -16 -47 -11 -93 13 -103 13 -6 23 -22 26 -43 8 -49 73 -133 102
-133 31 0 40 31 21 69 -25 47 -19 56 14 21 40 -43 76 -39 74 8 -1 18 3 32 10
32 14 -1 51 -28 45 -34 -15 -14 -115 -86 -120 -86 -7 0 -29 -46 -29 -61 0 -5
11 -14 24 -20 18 -9 29 -8 49 5 22 15 25 15 31 1 3 -9 0 -36 -6 -61 -23 -86
24 -107 110 -49 30 19 63 35 73 35 13 0 18 4 13 12 -4 6 -3 8 3 5 6 -4 13 -18
16 -32 4 -22 -3 -32 -49 -65 -85 -63 -101 -103 -48 -116 18 -5 41 5 88 35 60
39 64 41 91 27 56 -29 77 7 40 69 -34 59 -74 105 -91 105 -8 0 -13 3 -12 8 1
4 -1 17 -6 29 -10 31 -50 40 -82 18 l-27 -17 7 33 c20 108 20 106 -8 124 -14
10 -33 15 -41 11 -13 -5 -14 -2 -5 15 16 28 -2 76 -45 123 -28 30 -41 37 -62
34 -27 -4 -28 -3 -28 47 0 39 -7 61 -27 93 -39 59 -57 66 -104 40z m81 -50
c40 -60 44 -99 14 -129 -17 -17 -29 -20 -60 -16 -37 5 -39 4 -45 -29 -7 -36
-27 -59 -43 -50 -12 8 -8 27 14 84 17 41 17 44 0 62 -17 19 -18 19 -48 -6 -31
-26 -50 -27 -55 -3 -2 12 159 135 180 138 4 1 23 -23 43 -51z m141 -200 c39
-55 47 -78 28 -85 -6 -2 -26 19 -43 46 l-32 49 -29 -16 -29 -17 35 -48 c19
-26 32 -52 29 -57 -10 -16 -33 -11 -40 8 -3 9 -16 30 -29 46 -23 27 -24 28
-49 11 -25 -16 -26 -18 -10 -43 9 -15 25 -37 36 -49 19 -22 16 -43 -6 -43 -14
1 -87 105 -87 124 0 14 157 126 176 126 7 0 29 -23 50 -52z m92 -144 c2 -11
-11 -58 -27 -104 -17 -46 -30 -85 -28 -86 1 -2 31 17 66 41 50 35 67 42 78 34
9 -8 10 -15 3 -24 -21 -25 -180 -126 -190 -120 -21 13 0 98 46 188 9 16 13 31
11 34 -3 2 -33 -16 -68 -42 -59 -43 -94 -54 -94 -28 0 16 166 132 185 130 8
-1 16 -12 18 -23z m179 -249 c41 -59 48 -76 38 -85 -10 -8 -18 -3 -35 20 -19
27 -24 29 -40 18 -127 -94 -160 -109 -160 -73 0 10 38 39 149 113 3 1 -3 16
-13 32 -16 28 -15 50 3 50 4 0 30 -34 58 -75z"/>
<path d="M1808 2187 l-28 -22 21 -32 c23 -36 58 -44 79 -17 11 12 10 21 -8 52
-11 20 -24 38 -29 39 -4 2 -20 -7 -35 -20z"/>
</g>
</svg>
